<svg id="Layer_1" data-name="Layer 1" xmlns="http://www.w3.org/2000/svg" viewBox="0 0 97.93 21.92"><defs><style>.cls-1{fill:#e62b1e;}.cls-2{fill:#fff;}</style></defs><title>logo</title><path class="cls-1" d="M1.33,19.32L0.38,18h0.9l0.51,0.75L2.29,18H3.16L2.22,19.31l1.06,1.53H2.38l-0.6-.91-0.6.91H0.29Z" transform="translate(0 -0.01)"/><path class="cls-2" d="M7,19.13H4.22v-0.6H7v0.6Zm0,1.19H4.22v-0.6H7v0.6Z" transform="translate(0 -0.01)"/><path class="cls-2" d="M9.19,17.51H8.39V16.86H9.19v0.65ZM8.39,18H9.19v2.88H8.39V18Z" transform="translate(0 -0.01)"/><path class="cls-2" d="M9.7,18h0.75v0.4h0a1,1,0,0,1,.88-0.48,1,1,0,0,1,1.05,1.19v1.77H11.61V19.21c0-.47-0.14-0.71-0.51-0.71s-0.61.24-.61,0.82v1.51H9.7V18Z" transform="translate(0 -0.01)"/><path class="cls-2" d="M14.94,20.47h0a1,1,0,0,1-.87.45,1.37,1.37,0,0,1-1.29-1.54A1.34,1.34,0,0,1,14,17.88a1,1,0,0,1,.86.43h0V16.86H15.7v4H14.94V20.47Zm-0.69-2a0.76,0.76,0,0,0-.7.92,0.8,0.8,0,0,0,.7.92,0.76,0.76,0,0,0,.68-0.93A0.75,0.75,0,0,0,14.25,18.48Z" transform="translate(0 -0.01)"/><path class="cls-2" d="M16.83,19.59a0.71,0.71,0,0,0,1.33.36h0.7a1.3,1.3,0,0,1-1.35,1A1.41,1.41,0,0,1,16,19.4a1.45,1.45,0,1,1,2.87.19H16.83Zm1.29-.5a0.6,0.6,0,0,0-.63-0.61,0.62,0.62,0,0,0-.66.61h1.29Z" transform="translate(0 -0.01)"/><path class="cls-2" d="M19.27,18H20v0.37h0a1,1,0,0,1,.86-0.45,1.35,1.35,0,0,1,1.31,1.55,1.33,1.33,0,0,1-1.26,1.49,1,1,0,0,1-.86-0.43h0v1.37H19.27V18Zm2.14,1.45a0.79,0.79,0,0,0-.69-0.93,0.77,0.77,0,0,0-.69.93A0.72,0.72,0,1,0,21.4,19.41Z" transform="translate(0 -0.01)"/><path class="cls-2" d="M23.21,19.59a0.71,0.71,0,0,0,1.33.36h0.7a1.3,1.3,0,0,1-1.35,1,1.41,1.41,0,0,1-1.47-1.51,1.45,1.45,0,1,1,2.87.19H23.21Zm1.29-.5a0.6,0.6,0,0,0-.63-0.61,0.62,0.62,0,0,0-.66.61H24.5Z" transform="translate(0 -0.01)"/><path class="cls-2" d="M25.64,18h0.75v0.4h0a1,1,0,0,1,.88-0.48,1,1,0,0,1,1.05,1.19v1.77H27.55V19.21c0-.47-0.14-0.71-0.51-0.71s-0.61.24-.61,0.82v1.51H25.64V18Z" transform="translate(0 -0.01)"/><path class="cls-2" d="M30.89,20.47h0a1,1,0,0,1-.87.45,1.37,1.37,0,0,1-1.29-1.54A1.34,1.34,0,0,1,30,17.88a1,1,0,0,1,.86.43h0V16.86h0.79v4H30.89V20.47Zm-0.69-2a0.76,0.76,0,0,0-.7.92,0.8,0.8,0,0,0,.7.92,0.76,0.76,0,0,0,.68-0.93A0.75,0.75,0,0,0,30.2,18.48Z" transform="translate(0 -0.01)"/><path class="cls-2" d="M32.78,19.59a0.71,0.71,0,0,0,1.33.36h0.7a1.3,1.3,0,0,1-1.35,1A1.41,1.41,0,0,1,32,19.4a1.45,1.45,0,1,1,2.87.19H32.78Zm1.29-.5a0.6,0.6,0,0,0-.63-0.61,0.62,0.62,0,0,0-.66.61h1.29Z" transform="translate(0 -0.01)"/><path class="cls-2" d="M35.21,18H36v0.4h0a1,1,0,0,1,.88-0.48,1,1,0,0,1,1.05,1.19v1.77H37.12V19.21c0-.47-0.14-0.71-0.51-0.71S36,18.74,36,19.33v1.51H35.21V18Z" transform="translate(0 -0.01)"/><path class="cls-2" d="M39.4,18H40v0.53H39.4v1.43c0,0.27.07,0.33,0.33,0.33l0.25,0v0.62a3,3,0,0,1-.46,0c-0.48,0-.91-0.11-0.91-0.69v-1.7H38.13V18h0.48V17.09H39.4V18Z" transform="translate(0 -0.01)"/><path class="cls-2" d="M40.27,16.86h0.79v4H40.27v-4Z" transform="translate(0 -0.01)"/><path class="cls-2" d="M43,21.2a0.9,0.9,0,0,1-1,.65l-0.48,0V21.17a4.2,4.2,0,0,0,.46,0,0.37,0.37,0,0,0,.27-0.54l-1-2.7h0.85l0.65,2h0l0.63-2H44.2Z" transform="translate(0 -0.01)"/><path class="cls-2" d="M47.19,17.88a1.41,1.41,0,0,1,1.49,1.52,1.49,1.49,0,1,1-3,0A1.41,1.41,0,0,1,47.19,17.88Zm0,2.44a0.76,0.76,0,0,0,.7-0.92,0.73,0.73,0,1,0-1.4,0A0.76,0.76,0,0,0,47.19,20.32Z" transform="translate(0 -0.01)"/><path class="cls-2" d="M49,18h0.75v0.53h0a1,1,0,0,1,.92-0.61l0.17,0v0.74l-0.28,0a0.78,0.78,0,0,0-.78.92v1.3H49V18Z" transform="translate(0 -0.01)"/><path class="cls-2" d="M53.79,20.65a1.23,1.23,0,0,1-1.49,1.28A1.13,1.13,0,0,1,51,21h0.79a0.54,0.54,0,0,0,.59.4A0.61,0.61,0,0,0,53,20.69V20.31h0a1,1,0,0,1-.86.45,1.25,1.25,0,0,1-1.23-1.45,1.29,1.29,0,0,1,1.24-1.43,0.9,0.9,0,0,1,.86.46h0V18h0.75v2.7ZM53,19.36a0.73,0.73,0,0,0-.67-0.89,0.7,0.7,0,0,0-.64.82,0.73,0.73,0,0,0,.64.86A0.71,0.71,0,0,0,53,19.36Z" transform="translate(0 -0.01)"/><path class="cls-2" d="M54.17,18.84a1.14,1.14,0,0,1,1.35-1,1,1,0,0,1,1.26.82v1.5a1.48,1.48,0,0,0,.1.64h-0.8A1.17,1.17,0,0,1,56,20.56a1.32,1.32,0,0,1-1,.36,0.86,0.86,0,0,1-1-.86,0.9,0.9,0,0,1,1-.87c0.48-.07.94-0.06,0.94-0.38s-0.23-.39-0.51-0.39a0.45,0.45,0,0,0-.52.43H54.17ZM56,19.43a1.57,1.57,0,0,1-.66.17,0.45,0.45,0,0,0-.47.42,0.39,0.39,0,0,0,.48.37A0.59,0.59,0,0,0,56,19.72v-0.3Z" transform="translate(0 -0.01)"/><path class="cls-2" d="M57.29,18H58v0.4h0a1,1,0,0,1,.88-0.48A1,1,0,0,1,60,19.07v1.77H59.2V19.21c0-.47-0.14-0.71-0.51-0.71s-0.61.24-.61,0.82v1.51H57.29V18Z" transform="translate(0 -0.01)"/><path class="cls-2" d="M61.18,17.51H60.39V16.86h0.79v0.65ZM60.39,18h0.79v2.88H60.39V18Z" transform="translate(0 -0.01)"/><path class="cls-2" d="M61.52,20.24L63,18.55H61.63V18h2.43v0.6l-1.5,1.69h1.6v0.6H61.52v-0.6Z" transform="translate(0 -0.01)"/><path class="cls-2" d="M65.13,19.59a0.71,0.71,0,0,0,1.33.36h0.7a1.3,1.3,0,0,1-1.35,1,1.41,1.41,0,0,1-1.47-1.51,1.45,1.45,0,1,1,2.87.19H65.13Zm1.29-.5a0.6,0.6,0,0,0-.63-0.61,0.62,0.62,0,0,0-.66.61h1.29Z" transform="translate(0 -0.01)"/><path class="cls-2" d="M69.62,20.47h0a1,1,0,0,1-.87.45,1.37,1.37,0,0,1-1.29-1.54,1.34,1.34,0,0,1,1.28-1.49,1,1,0,0,1,.86.43h0V16.86h0.79v4H69.62V20.47Zm-0.69-2a0.76,0.76,0,0,0-.7.92,0.8,0.8,0,0,0,.7.92,0.76,0.76,0,0,0,.68-0.93A0.75,0.75,0,0,0,68.93,18.48Z" transform="translate(0 -0.01)"/><path class="cls-2" d="M73.25,17.6H72.06V16.86h3.26V17.6H74.13v3.24H73.25V17.6Z" transform="translate(0 -0.01)"/><path class="cls-2" d="M75.66,16.86h3V17.6h-2.1v0.85h1.93v0.68H76.54v1h2.14v0.74h-3v-4Z" transform="translate(0 -0.01)"/><path class="cls-2" d="M79.05,16.86h1.72a1.74,1.74,0,0,1,1.8,2,1.77,1.77,0,0,1-1.8,2H79.05v-4Zm0.87,3.24h0.78a1,1,0,0,0,1-1.19,1.08,1.08,0,0,0-1.15-1.31H79.93V20.1Z" transform="translate(0 -0.01)"/><path class="cls-2" d="M85.07,19.59a0.71,0.71,0,0,0,1.33.36h0.7a1.3,1.3,0,0,1-1.35,1,1.41,1.41,0,0,1-1.47-1.51,1.45,1.45,0,1,1,2.87.19H85.07Zm1.29-.5a0.6,0.6,0,0,0-.63-0.61,0.62,0.62,0,0,0-.66.61h1.29Z" transform="translate(0 -0.01)"/><path class="cls-2" d="M89,20.84H88.11l-1-2.88H88l0.61,2h0l0.61-2H90Z" transform="translate(0 -0.01)"/><path class="cls-2" d="M90.72,19.59a0.71,0.71,0,0,0,1.33.36h0.7a1.3,1.3,0,0,1-1.35,1,1.41,1.41,0,0,1-1.47-1.51,1.45,1.45,0,1,1,2.87.19H90.72Zm1.29-.5a0.6,0.6,0,0,0-.63-0.61,0.62,0.62,0,0,0-.66.61H92Z" transform="translate(0 -0.01)"/><path class="cls-2" d="M93.15,18H93.9v0.4h0a1,1,0,0,1,.88-0.48,1,1,0,0,1,1.05,1.19v1.77H95.06V19.21c0-.47-0.14-0.71-0.51-0.71s-0.61.24-.61,0.82v1.51H93.15V18Z" transform="translate(0 -0.01)"/><path class="cls-2" d="M97.35,18h0.58v0.53H97.35v1.43c0,0.27.07,0.33,0.33,0.33l0.25,0v0.62a3,3,0,0,1-.46,0c-0.48,0-.91-0.11-0.91-0.69v-1.7H96.08V18h0.48V17.09h0.79V18Z" transform="translate(0 -0.01)"/><path class="cls-1" d="M3.71,3.7H0V0.31H11.5V3.7H7.79v9.85H3.71V3.7Z" transform="translate(0 -0.01)"/><path class="cls-1" d="M12.13,0.31H23.29V3.7H16.21V5.35h7.08V8.51H16.21v1.65h7.08v3.39H12.13V0.31Z" transform="translate(0 -0.01)"/><path class="cls-1" d="M24,0.31h6.69c4.41,0,6,3.26,6,6.6,0,4.06-2.15,6.64-6.77,6.64H24V0.31Zm4.08,9.85h1.6c2.54,0,2.91-2.06,2.91-3.3A2.93,2.93,0,0,0,29.36,3.7h-1.3v6.45Z" transform="translate(0 -0.01)"/><path class="cls-1" d="M42.51,8.45L41.26,6.38,40,8.45h-3L39.9,4.28l-2.73-4h3l1.11,2,1.14-2h3l-2.73,4L45.5,8.45h-3Z" transform="translate(0 -0.01)"/><path class="cls-2" d="M49.81,9.27a3.7,3.7,0,0,0,.51,1.82,3.33,3.33,0,0,0,3,1.31,5.16,5.16,0,0,0,1.76-.29,2,2,0,0,0,1.54-2A1.74,1.74,0,0,0,56,8.59a6.46,6.46,0,0,0-2.07-.78l-1.73-.4a7.68,7.68,0,0,1-2.4-.87,2.78,2.78,0,0,1-1.22-2.47,3.85,3.85,0,0,1,1.2-2.92A4.72,4.72,0,0,1,53.16,0a5.77,5.77,0,0,1,3.43,1A3.65,3.65,0,0,1,58,4.21H56.32a3.4,3.4,0,0,0-.55-1.62,3.13,3.13,0,0,0-2.66-1,3,3,0,0,0-2.18.66,2.12,2.12,0,0,0-.66,1.54,1.52,1.52,0,0,0,.78,1.42,11.22,11.22,0,0,0,2.32.72l1.79,0.42a5.4,5.4,0,0,1,2,.83,3.16,3.16,0,0,1,1.22,2.68A3.37,3.37,0,0,1,56.83,13a6.82,6.82,0,0,1-3.61.94,5.31,5.31,0,0,1-3.76-1.26,4.29,4.29,0,0,1-1.33-3.38h1.68Z" transform="translate(0 -0.01)"/><path class="cls-2" d="M60.91,0.34H63L69.59,11V0.34h1.71V13.53h-2L62.61,2.89V13.53H60.91V0.34Z" transform="translate(0 -0.01)"/><path class="cls-2" d="M76.11,0.34V8.49a4.76,4.76,0,0,0,.54,2.39,2.86,2.86,0,0,0,2.71,1.44,3.2,3.2,0,0,0,3.11-1.55,4.91,4.91,0,0,0,.44-2.27V0.34h1.8V7.75a8.54,8.54,0,0,1-.66,3.74q-1.21,2.39-4.56,2.39T75,11.49a8.54,8.54,0,0,1-.66-3.74V0.34h1.8Z" transform="translate(0 -0.01)"/></svg>