<?xml version="1.0" encoding="utf-8"?>
<!-- Generator: Adobe Illustrator 19.2.1, SVG Export Plug-In . SVG Version: 6.00 Build 0)  -->
<svg version="1.1" id="Layer_1" xmlns="http://www.w3.org/2000/svg" xmlns:xlink="http://www.w3.org/1999/xlink" x="0px" y="0px"
	 viewBox="0 0 48.2 10.6" style="enable-background:new 0 0 48.2 10.6;" xml:space="preserve">
<style type="text/css">
	.st0{fill:#E62B1E;}
	.st1{fill:#FFFFFF;}
</style>
<g>
	<path class="st0" d="M7.7,8.5L7.4,7.9h0.3l0.2,0.3l0.2-0.3h0.3L8.1,8.5L8.5,9H8.1L7.9,8.7L7.7,9H7.3L7.7,8.5z"/>
	<path class="st1" d="M9.9,8.4H8.8V8.2h1.1V8.4z M9.9,8.8H8.8V8.6h1.1V8.8z"/>
	<path class="st1" d="M10.7,7.8h-0.3V7.5h0.3V7.8z M10.4,7.9h0.3V9h-0.3V7.9z"/>
	<path class="st1" d="M10.9,7.9h0.3v0.2h0c0.1-0.1,0.2-0.2,0.3-0.2c0.3,0,0.4,0.2,0.4,0.4V9h-0.3V8.4c0-0.2-0.1-0.3-0.2-0.3
		c-0.2,0-0.2,0.1-0.2,0.3V9h-0.3V7.9z"/>
	<path class="st1" d="M12.8,8.9L12.8,8.9c-0.1,0.1-0.2,0.2-0.3,0.2c-0.3,0-0.5-0.3-0.5-0.6c0-0.3,0.2-0.6,0.5-0.6
		c0.1,0,0.3,0.1,0.3,0.2h0h0V7.5h0.3V9h-0.3V8.9z M12.6,8.1c-0.2,0-0.3,0.2-0.3,0.3c0,0.2,0.1,0.3,0.3,0.3c0.2,0,0.3-0.2,0.3-0.3
		C12.8,8.3,12.8,8.1,12.6,8.1z"/>
	<path class="st1" d="M13.6,8.6c0,0.2,0.1,0.3,0.3,0.3c0.1,0,0.2-0.1,0.2-0.1h0.3c-0.1,0.3-0.3,0.4-0.5,0.4c-0.3,0-0.6-0.2-0.6-0.6
		c0-0.3,0.2-0.6,0.6-0.6c0.4,0,0.5,0.3,0.5,0.6H13.6z M14,8.4c0-0.2-0.1-0.2-0.2-0.2c-0.2,0-0.2,0.1-0.2,0.2H14z"/>
	<path class="st1" d="M14.5,7.9h0.3v0.1h0c0.1-0.1,0.2-0.2,0.3-0.2c0.3,0,0.5,0.3,0.5,0.6c0,0.3-0.2,0.6-0.5,0.6
		c-0.1,0-0.3-0.1-0.3-0.2h0v0.5h-0.3V7.9z M15.3,8.5c0-0.2-0.1-0.3-0.3-0.3c-0.2,0-0.3,0.2-0.3,0.3c0,0.2,0.1,0.3,0.3,0.3
		C15.2,8.8,15.3,8.7,15.3,8.5z"/>
	<path class="st1" d="M15.9,8.6c0,0.2,0.1,0.3,0.3,0.3c0.1,0,0.2-0.1,0.2-0.1h0.3c-0.1,0.3-0.3,0.4-0.5,0.4c-0.3,0-0.6-0.2-0.6-0.6
		c0-0.3,0.2-0.6,0.6-0.6c0.4,0,0.5,0.3,0.5,0.6H15.9z M16.4,8.4c0-0.2-0.1-0.2-0.2-0.2c-0.2,0-0.2,0.1-0.2,0.2H16.4z"/>
	<path class="st1" d="M16.9,7.9h0.3v0.2h0c0.1-0.1,0.2-0.2,0.3-0.2c0.3,0,0.4,0.2,0.4,0.4V9h-0.3V8.4c0-0.2-0.1-0.3-0.2-0.3
		c-0.2,0-0.2,0.1-0.2,0.3V9h-0.3V7.9z"/>
	<path class="st1" d="M18.8,8.9L18.8,8.9c-0.1,0.1-0.2,0.2-0.3,0.2c-0.3,0-0.5-0.3-0.5-0.6c0-0.3,0.2-0.6,0.5-0.6
		c0.1,0,0.3,0.1,0.3,0.2h0h0V7.5h0.3V9h-0.3V8.9z M18.6,8.1c-0.2,0-0.3,0.2-0.3,0.3c0,0.2,0.1,0.3,0.3,0.3c0.2,0,0.3-0.2,0.3-0.3
		C18.8,8.3,18.8,8.1,18.6,8.1z"/>
	<path class="st1" d="M19.5,8.6c0,0.2,0.1,0.3,0.3,0.3c0.1,0,0.2-0.1,0.2-0.1h0.3C20.2,9,20,9.1,19.8,9.1c-0.3,0-0.6-0.2-0.6-0.6
		c0-0.3,0.2-0.6,0.6-0.6c0.4,0,0.5,0.3,0.5,0.6H19.5z M20,8.4c0-0.2-0.1-0.2-0.2-0.2c-0.2,0-0.2,0.1-0.2,0.2H20z"/>
	<path class="st1" d="M20.5,7.9h0.3v0.2h0C20.8,8,21,7.9,21.1,7.9c0.3,0,0.4,0.2,0.4,0.4V9h-0.3V8.4c0-0.2-0.1-0.3-0.2-0.3
		c-0.2,0-0.2,0.1-0.2,0.3V9h-0.3V7.9z"/>
	<path class="st1" d="M22,7.9h0.2v0.2H22v0.5c0,0.1,0,0.1,0.1,0.1c0,0,0.1,0,0.1,0V9c-0.1,0-0.1,0-0.2,0c-0.2,0-0.3,0-0.3-0.3V8.1
		h-0.2V7.9h0.2V7.6H22V7.9z"/>
	<path class="st1" d="M22.4,7.5h0.3V9h-0.3V7.5z"/>
	<path class="st1" d="M23.4,9.2c-0.1,0.2-0.2,0.2-0.4,0.2c-0.1,0-0.1,0-0.2,0V9.2c0.1,0,0.1,0,0.2,0c0.1,0,0.1-0.1,0.1-0.2l-0.4-1
		H23l0.2,0.7h0l0.2-0.7h0.3L23.4,9.2z"/>
	<path class="st1" d="M25,7.9c0.3,0,0.6,0.2,0.6,0.6c0,0.3-0.2,0.6-0.6,0.6c-0.3,0-0.6-0.2-0.6-0.6C24.4,8.1,24.6,7.9,25,7.9z
		 M25,8.8c0.2,0,0.3-0.2,0.3-0.3c0-0.2-0.1-0.3-0.3-0.3c-0.2,0-0.3,0.2-0.3,0.3C24.7,8.7,24.8,8.8,25,8.8z"/>
	<path class="st1" d="M25.6,7.9h0.3v0.2h0C26,8,26.1,7.9,26.3,7.9c0,0,0,0,0.1,0v0.3c0,0-0.1,0-0.1,0c-0.2,0-0.3,0.2-0.3,0.3V9h-0.3
		V7.9z"/>
	<path class="st1" d="M27.4,9c0,0.2-0.1,0.5-0.6,0.5c-0.2,0-0.5-0.1-0.5-0.3h0.3c0,0.1,0.1,0.1,0.2,0.1c0.2,0,0.2-0.1,0.2-0.3V8.8h0
		C27.1,8.9,27,9,26.8,9c-0.3,0-0.5-0.2-0.5-0.5c0-0.3,0.2-0.5,0.5-0.5c0.1,0,0.3,0,0.3,0.2h0V7.9h0.3V9z M27.2,8.5
		c0-0.2-0.1-0.3-0.3-0.3c-0.2,0-0.2,0.1-0.2,0.3c0,0.2,0.1,0.3,0.2,0.3C27.1,8.8,27.2,8.6,27.2,8.5z"/>
	<path class="st1" d="M27.6,8.3c0-0.3,0.3-0.4,0.5-0.4c0.2,0,0.5,0,0.5,0.3v0.6c0,0.1,0,0.2,0,0.2h-0.3c0,0,0-0.1,0-0.1
		c-0.1,0.1-0.2,0.1-0.4,0.1c-0.2,0-0.4-0.1-0.4-0.3c0-0.2,0.2-0.3,0.4-0.3c0.2,0,0.4,0,0.4-0.1c0-0.1-0.1-0.1-0.2-0.1
		c-0.1,0-0.2,0-0.2,0.2H27.6z M28.3,8.5c-0.1,0-0.2,0-0.2,0.1c-0.1,0-0.2,0.1-0.2,0.2c0,0.1,0.1,0.1,0.2,0.1c0.2,0,0.2-0.2,0.2-0.2
		V8.5z"/>
	<path class="st1" d="M28.8,7.9H29v0.2h0c0.1-0.1,0.2-0.2,0.3-0.2c0.3,0,0.4,0.2,0.4,0.4V9h-0.3V8.4c0-0.2-0.1-0.3-0.2-0.3
		c-0.2,0-0.2,0.1-0.2,0.3V9h-0.3V7.9z"/>
	<path class="st1" d="M30.2,7.8h-0.3V7.5h0.3V7.8z M29.9,7.9h0.3V9h-0.3V7.9z"/>
	<path class="st1" d="M30.4,8.8l0.6-0.6h-0.5V7.9h0.9v0.2l-0.6,0.6h0.6V9h-1V8.8z"/>
	<path class="st1" d="M31.7,8.6c0,0.2,0.1,0.3,0.3,0.3c0.1,0,0.2-0.1,0.2-0.1h0.3C32.4,9,32.2,9.1,32,9.1c-0.3,0-0.6-0.2-0.6-0.6
		c0-0.3,0.2-0.6,0.6-0.6c0.4,0,0.5,0.3,0.5,0.6H31.7z M32.2,8.4c0-0.2-0.1-0.2-0.2-0.2c-0.2,0-0.2,0.1-0.2,0.2H32.2z"/>
	<path class="st1" d="M33.4,8.9L33.4,8.9c-0.1,0.1-0.2,0.2-0.3,0.2c-0.3,0-0.5-0.3-0.5-0.6c0-0.3,0.2-0.6,0.5-0.6
		c0.1,0,0.3,0.1,0.3,0.2h0h0V7.5h0.3V9h-0.3V8.9z M33.1,8.1c-0.2,0-0.3,0.2-0.3,0.3c0,0.2,0.1,0.3,0.3,0.3c0.2,0,0.3-0.2,0.3-0.3
		C33.4,8.3,33.3,8.1,33.1,8.1z"/>
	<path class="st1" d="M34.8,7.8h-0.4V7.5h1.2v0.3h-0.4V9h-0.3V7.8z"/>
	<path class="st1" d="M35.7,7.5h1.1v0.3H36v0.3h0.7v0.3H36v0.4h0.8V9h-1.1V7.5z"/>
	<path class="st1" d="M36.9,7.5h0.6c0.4,0,0.7,0.2,0.7,0.7C38.3,8.7,38,9,37.6,9h-0.6V7.5z M37.3,8.8h0.3c0.2,0,0.4-0.1,0.4-0.4
		c0-0.3-0.1-0.5-0.4-0.5h-0.2V8.8z"/>
	<path class="st1" d="M39.2,8.6c0,0.2,0.1,0.3,0.3,0.3c0.1,0,0.2-0.1,0.2-0.1H40c-0.1,0.3-0.3,0.4-0.5,0.4c-0.3,0-0.6-0.2-0.6-0.6
		c0-0.3,0.2-0.6,0.6-0.6c0.4,0,0.5,0.3,0.5,0.6H39.2z M39.7,8.4c0-0.2-0.1-0.2-0.2-0.2c-0.2,0-0.2,0.1-0.2,0.2H39.7z"/>
	<path class="st1" d="M40.7,9h-0.3L40,7.9h0.3l0.2,0.7h0l0.2-0.7H41L40.7,9z"/>
	<path class="st1" d="M41.3,8.6c0,0.2,0.1,0.3,0.3,0.3c0.1,0,0.2-0.1,0.2-0.1h0.3C42,9,41.8,9.1,41.6,9.1c-0.3,0-0.6-0.2-0.6-0.6
		c0-0.3,0.2-0.6,0.6-0.6c0.4,0,0.5,0.3,0.5,0.6H41.3z M41.8,8.4c0-0.2-0.1-0.2-0.2-0.2c-0.2,0-0.2,0.1-0.2,0.2H41.8z"/>
	<path class="st1" d="M42.2,7.9h0.3v0.2h0c0.1-0.1,0.2-0.2,0.3-0.2c0.3,0,0.4,0.2,0.4,0.4V9H43V8.4c0-0.2-0.1-0.3-0.2-0.3
		c-0.2,0-0.2,0.1-0.2,0.3V9h-0.3V7.9z"/>
	<path class="st1" d="M43.8,7.9H44v0.2h-0.2v0.5c0,0.1,0,0.1,0.1,0.1c0,0,0.1,0,0.1,0V9c-0.1,0-0.1,0-0.2,0c-0.2,0-0.3,0-0.3-0.3
		V8.1h-0.2V7.9h0.2V7.6h0.3V7.9z"/>
	<g>
		<g>
			<path class="st0" d="M8.6,2.6H7.2V1.3h4.3v1.3h-1.4v3.7H8.6V2.6z"/>
			<path class="st0" d="M11.8,1.3H16v1.3h-2.7v0.6H16v1.2h-2.7V5H16v1.3h-4.2V1.3z"/>
			<path class="st0" d="M16.2,1.3h2.5c1.7,0,2.2,1.2,2.2,2.5c0,1.5-0.8,2.5-2.5,2.5h-2.2V1.3z M17.8,5h0.6c1,0,1.1-0.8,1.1-1.2
				c0-0.3-0.1-1.2-1.2-1.2h-0.5V5z"/>
		</g>
		<g>
			<g>
				<path class="st0" d="M23.2,4.4l-0.5-0.8l-0.5,0.8h-1.1l1.1-1.6l-1-1.5h1.1L22.7,2l0.4-0.7h1.1l-1,1.5l1.1,1.6H23.2z"/>
			</g>
		</g>
	</g>
	<g>
		<path class="st1" d="M26,4.7C26,5,26,5.2,26.1,5.4c0.2,0.3,0.6,0.5,1.1,0.5c0.2,0,0.5,0,0.7-0.1c0.4-0.1,0.6-0.4,0.6-0.7
			c0-0.3-0.1-0.5-0.2-0.6c-0.2-0.1-0.4-0.2-0.8-0.3L26.8,4c-0.4-0.1-0.7-0.2-0.9-0.3c-0.3-0.2-0.5-0.5-0.5-0.9
			c0-0.4,0.1-0.8,0.4-1.1c0.3-0.3,0.7-0.4,1.3-0.4c0.5,0,0.9,0.1,1.3,0.4C28.9,1.8,29,2.2,29,2.8h-0.6c0-0.3-0.1-0.5-0.2-0.6
			c-0.2-0.3-0.5-0.4-1-0.4c-0.4,0-0.7,0.1-0.8,0.2c-0.2,0.2-0.2,0.4-0.2,0.6c0,0.2,0.1,0.4,0.3,0.5c0.1,0.1,0.4,0.2,0.9,0.3L28,3.6
			c0.3,0.1,0.6,0.2,0.8,0.3c0.3,0.2,0.5,0.6,0.5,1c0,0.5-0.2,0.9-0.6,1.2c-0.4,0.2-0.8,0.4-1.4,0.4c-0.6,0-1.1-0.2-1.4-0.5
			c-0.3-0.3-0.5-0.7-0.5-1.3H26z"/>
		<path class="st1" d="M30.1,1.3h0.8l2.5,4v-4H34v5h-0.8l-2.5-4v4h-0.6V1.3z"/>
		<path class="st1" d="M35.8,1.3v3.1c0,0.4,0.1,0.7,0.2,0.9c0.2,0.4,0.5,0.5,1,0.5c0.6,0,1-0.2,1.2-0.6c0.1-0.2,0.2-0.5,0.2-0.9V1.3
			h0.7v2.8c0,0.6-0.1,1.1-0.2,1.4c-0.3,0.6-0.9,0.9-1.7,0.9c-0.8,0-1.4-0.3-1.7-0.9c-0.2-0.3-0.2-0.8-0.2-1.4V1.3H35.8z"/>
	</g>
</g>
</svg>
